<?xml version="1.0" standalone="no"?>
<!DOCTYPE svg PUBLIC "-//W3C//DTD SVG 20010904//EN"
 "http://www.w3.org/TR/2001/REC-SVG-20010904/DTD/svg10.dtd">
<svg version="1.0" xmlns="http://www.w3.org/2000/svg"
 width="2560.000000pt" height="820.000000pt" viewBox="0 0 2560.000000 820.000000"
 preserveAspectRatio="xMidYMid meet">

<g transform="translate(0.000000,820.000000) scale(0.100000,-0.100000)"
fill="#000000" stroke="none">
<path d="M13932 3550 c-59 -14 -109 -57 -175 -152 -73 -105 -357 -544 -357
-551 0 -8 108 -87 119 -87 20 0 537 479 570 529 29 43 34 60 35 110 1 46 -4
66 -20 88 -39 52 -108 77 -172 63z"/>
<path d="M11787 3386 c-145 -52 -214 -228 -142 -365 40 -78 148 -141 240 -141
97 0 200 64 241 149 10 20 20 66 22 106 3 61 0 77 -25 125 -31 61 -92 113
-151 130 -51 14 -139 12 -185 -4z"/>
<path d="M850 3082 l0 -99 193 -13 194 -12 6 -331 c9 -423 9 -1151 0 -1574
l-6 -331 -194 -12 -193 -13 0 -99 0 -98 1080 0 c965 0 1080 2 1080 15 0 33 20
515 25 613 l6 102 -120 0 -119 0 -31 -167 c-18 -93 -39 -207 -48 -256 l-17
-87 -526 0 -527 0 -6 107 c-4 58 -7 292 -7 520 l0 413 302 -2 301 -3 28 -170
c16 -93 29 -173 29 -177 0 -5 45 -8 100 -8 l100 0 0 470 0 470 -100 0 c-55 0
-100 -4 -100 -8 0 -4 -13 -84 -30 -177 -16 -94 -30 -173 -30 -177 0 -5 -135
-8 -300 -8 l-300 0 0 383 c0 210 3 433 7 495 l6 112 487 0 486 0 48 -250 49
-250 119 0 119 0 -6 103 c-6 104 -25 568 -25 600 0 16 -56 17 -1040 17 l-1040
0 0 -98z"/>
<path d="M4650 2489 c-201 -22 -434 -161 -583 -346 -28 -35 -53 -63 -57 -63
-3 0 -14 78 -25 173 -10 94 -22 179 -26 188 -5 9 -28 21 -52 27 -42 11 -49 9
-308 -96 l-264 -108 -3 -81 -3 -80 58 -6 c32 -4 106 -9 164 -13 l106 -7 7
-105 c3 -58 6 -365 6 -682 l0 -577 -47 -6 c-27 -4 -99 -12 -160 -18 l-113 -12
0 -89 0 -88 485 0 485 0 0 89 0 88 -57 7 c-32 3 -97 11 -145 18 l-88 11 0 623
0 623 78 55 c174 125 337 181 496 174 142 -7 214 -49 263 -154 46 -100 48
-134 48 -741 0 -314 -2 -574 -5 -576 -3 -3 -71 -13 -153 -23 l-147 -18 0 -88
0 -88 480 0 480 0 0 89 0 88 -147 17 c-82 10 -149 19 -150 20 -1 1 -3 281 -4
621 l-1 620 84 58 c166 117 290 166 443 174 216 12 315 -62 357 -267 10 -51
12 -191 11 -634 -2 -313 -4 -570 -5 -572 -2 -1 -70 -10 -151 -20 l-147 -17 0
-89 0 -88 480 0 480 0 0 89 0 88 -62 7 c-35 4 -102 12 -150 18 l-88 11 0 576
c0 330 -5 614 -10 666 -21 180 -66 297 -152 390 -82 90 -163 129 -299 144
-188 21 -383 -32 -552 -151 -52 -36 -166 -149 -215 -212 l-45 -59 -26 80 c-32
97 -83 184 -136 229 -104 91 -264 132 -435 113z"/>
<path d="M13535 2489 c-100 -11 -236 -49 -318 -90 -369 -187 -563 -570 -526
-1042 30 -376 213 -661 524 -813 147 -71 230 -89 425 -88 150 0 173 3 255 28
168 51 280 114 398 225 288 272 380 775 218 1201 -67 179 -226 361 -402 462
-160 93 -379 137 -574 117z m216 -209 c183 -35 324 -178 393 -398 70 -225 72
-598 5 -818 -82 -268 -263 -414 -514 -414 -279 0 -454 165 -531 500 -21 92
-30 413 -14 537 41 324 179 527 400 585 75 19 183 23 261 8z"/>
<path d="M7990 2484 c-306 -35 -545 -176 -701 -413 -212 -323 -224 -822 -28
-1166 51 -91 178 -230 259 -285 349 -237 823 -222 1150 37 255 201 390 558
352 931 -52 523 -404 870 -907 896 -49 2 -106 2 -125 0z m201 -208 c289 -62
449 -351 449 -811 0 -545 -223 -840 -615 -812 -162 11 -281 79 -375 214 -81
114 -127 292 -137 524 -19 455 110 765 357 860 103 40 212 48 321 25z"/>
<path d="M10157 2475 c-432 -82 -722 -413 -778 -886 -13 -118 -7 -285 15 -400
84 -437 367 -690 817 -731 207 -19 414 20 557 104 70 41 236 205 279 275 l32
52 -61 54 -61 53 -46 -49 c-145 -155 -350 -237 -561 -224 -242 15 -422 130
-520 332 -55 113 -80 223 -86 385 -18 419 140 724 424 822 59 20 85 23 207 22
77 -1 154 -6 170 -11 33 -10 35 -14 100 -226 31 -101 42 -123 78 -161 66 -68
164 -86 247 -43 49 25 75 55 95 112 12 36 11 45 -9 100 -69 191 -262 348 -496
405 -114 28 -300 34 -403 15z"/>
<path d="M16197 2480 c-90 -14 -220 -63 -310 -117 -57 -33 -118 -84 -201 -166
-65 -64 -120 -116 -122 -114 -3 3 -44 331 -44 354 0 6 -21 18 -46 27 l-46 15
-264 -106 -264 -107 0 -82 0 -82 43 -6 c23 -3 94 -8 158 -12 l117 -7 6 -51 c3
-28 6 -336 6 -683 0 -499 -3 -633 -12 -634 -7 0 -76 -8 -153 -17 l-140 -17 -3
-88 -3 -87 481 0 480 0 0 88 0 88 -117 13 c-65 7 -130 15 -145 18 l-28 5 0
621 c0 578 1 621 18 633 108 85 259 165 369 196 111 32 267 32 338 0 85 -39
129 -94 163 -207 22 -69 31 -1244 10 -1246 -7 0 -76 -8 -153 -17 l-140 -17 -3
-88 -3 -87 481 0 481 0 -3 88 -3 87 -105 12 c-58 7 -124 15 -147 18 l-43 6 0
572 c0 700 -7 781 -85 945 -58 123 -168 212 -298 242 -69 15 -205 20 -270 10z"/>
<path d="M11688 2373 l-298 -107 0 -82 0 -82 53 -6 c28 -3 100 -8 158 -12
l107 -7 6 -36 c3 -20 6 -327 6 -682 l0 -646 -47 -6 c-27 -4 -96 -12 -155 -18
l-108 -12 0 -88 0 -89 485 0 485 0 0 89 0 88 -62 7 c-35 3 -103 11 -151 17
l-88 12 1 870 1 871 -43 13 c-24 7 -45 13 -48 12 -3 0 -139 -48 -302 -106z"/>
</g>
</svg>
