<?xml version="1.0" encoding="UTF-8"?>
<!DOCTYPE svg PUBLIC "-//W3C//DTD SVG 1.1//EN" "http://www.w3.org/Graphics/SVG/1.1/DTD/svg11.dtd">
<svg xmlns="http://www.w3.org/2000/svg" version="1.1" width="2560px" height="820px" style="shape-rendering:geometricPrecision; text-rendering:geometricPrecision; image-rendering:optimizeQuality; fill-rule:evenodd; clip-rule:evenodd" xmlns:xlink="http://www.w3.org/1999/xlink">
<g><path style="opacity:0.998" fill="#ff7d00" d="M 1734.5,30.5 C 1987.5,30.5 2240.5,30.5 2493.5,30.5C 2493.5,283.5 2493.5,536.5 2493.5,789.5C 2240.5,789.5 1987.5,789.5 1734.5,789.5C 1734.5,536.5 1734.5,283.5 1734.5,30.5 Z"/></g>
<g><path style="opacity:1" fill="#0c0b09" d="M 1395.5,463.5 C 1411.35,465.209 1416.52,473.543 1411,488.5C 1407.58,493.923 1403.41,498.756 1398.5,503C 1383.98,515.766 1369.64,528.766 1355.5,542C 1353.64,543.301 1351.64,543.635 1349.5,543C 1346.83,541 1344.17,539 1341.5,537C 1339.99,536.163 1339.49,534.996 1340,533.5C 1353.08,512.996 1366.42,492.662 1380,472.5C 1384.29,467.779 1389.46,464.779 1395.5,463.5 Z"/></g>
<g><path style="opacity:1" fill="#0c0b09" d="M 1181.5,479.5 C 1208.69,478.51 1219.19,491.177 1213,517.5C 1202.32,532.161 1188.82,535.328 1172.5,527C 1161.65,518.432 1158.49,507.598 1163,494.5C 1167.06,486.743 1173.23,481.743 1181.5,479.5 Z"/></g>
<g><path style="opacity:1" fill="#0c0b09" d="M 84.5,501.5 C 154.167,501.5 223.833,501.5 293.5,501.5C 294.394,525.507 295.394,549.507 296.5,573.5C 288.167,573.5 279.833,573.5 271.5,573.5C 268.5,556.832 265.5,540.165 262.5,523.5C 230.167,523.5 197.833,523.5 165.5,523.5C 164.619,556.491 164.286,589.491 164.5,622.5C 184.167,622.5 203.833,622.5 223.5,622.5C 225.608,610.185 227.608,597.852 229.5,585.5C 236.5,585.5 243.5,585.5 250.5,585.5C 250.5,616.833 250.5,648.167 250.5,679.5C 243.5,679.5 236.5,679.5 229.5,679.5C 227.765,667.588 225.765,655.755 223.5,644C 203.836,643.5 184.169,643.333 164.5,643.5C 164.27,678.176 164.604,712.843 165.5,747.5C 200.5,747.5 235.5,747.5 270.5,747.5C 273.371,730.478 276.371,713.478 279.5,696.5C 287.833,696.5 296.167,696.5 304.5,696.5C 303.372,720.825 302.372,745.159 301.5,769.5C 229.167,769.5 156.833,769.5 84.5,769.5C 84.5,762.833 84.5,756.167 84.5,749.5C 97.5026,748.881 110.503,748.214 123.5,747.5C 124.833,672.833 124.833,598.167 123.5,523.5C 110.503,522.786 97.5026,522.119 84.5,521.5C 84.5,514.833 84.5,508.167 84.5,501.5 Z"/></g>
<g><path style="opacity:1" fill="#fffefe" d="M 1750.5,501.5 C 1790.5,501.5 1830.5,501.5 1870.5,501.5C 1870.5,508.167 1870.5,514.833 1870.5,521.5C 1857.17,522.167 1843.83,522.833 1830.5,523.5C 1829.17,598.167 1829.17,672.834 1830.5,747.5C 1862.5,747.5 1894.5,747.5 1926.5,747.5C 1930.17,728.829 1933.83,710.163 1937.5,691.5C 1945.83,691.5 1954.17,691.5 1962.5,691.5C 1961.73,717.223 1960.4,742.89 1958.5,768.5C 1889.17,769.5 1819.84,769.833 1750.5,769.5C 1750.5,762.833 1750.5,756.167 1750.5,749.5C 1763.5,748.881 1776.5,748.214 1789.5,747.5C 1790.83,672.833 1790.83,598.167 1789.5,523.5C 1776.5,522.786 1763.5,522.119 1750.5,521.5C 1750.5,514.833 1750.5,508.167 1750.5,501.5 Z"/></g>
<g><path style="opacity:1" fill="#fffefe" d="M 1972.5,501.5 C 2011.83,501.5 2051.17,501.5 2090.5,501.5C 2090.5,508.167 2090.5,514.833 2090.5,521.5C 2076.46,522.093 2062.46,523.093 2048.5,524.5C 2048.33,575.834 2048.5,627.168 2049,678.5C 2054.55,734.711 2085.05,756.878 2140.5,745C 2159.97,738.859 2172.81,726.026 2179,706.5C 2183.66,690.846 2186,674.846 2186,658.5C 2186.5,613.835 2186.67,569.168 2186.5,524.5C 2172.2,523.144 2157.87,522.144 2143.5,521.5C 2143.5,514.833 2143.5,508.167 2143.5,501.5C 2177.5,501.5 2211.5,501.5 2245.5,501.5C 2245.5,508.167 2245.5,514.833 2245.5,521.5C 2233.17,522.167 2220.83,522.833 2208.5,523.5C 2208.67,574.501 2208.5,625.501 2208,676.5C 2207.08,701.561 2199.41,724.228 2185,744.5C 2164.7,766.224 2139.53,776.557 2109.5,775.5C 2047.93,774.764 2014.43,743.764 2009,682.5C 2008.5,629.501 2008.33,576.501 2008.5,523.5C 1996.5,522.884 1984.5,522.218 1972.5,521.5C 1972.5,514.833 1972.5,508.167 1972.5,501.5 Z"/></g>
<g><path style="opacity:1" fill="#fffefe" d="M 2272.5,501.5 C 2337.5,501.5 2402.5,501.5 2467.5,501.5C 2467.67,506.844 2467.5,512.177 2467,517.5C 2414.64,594.363 2362.47,671.363 2310.5,748.5C 2316.67,748.833 2322.83,749.167 2329,749.5C 2365.83,748.801 2402.66,748.301 2439.5,748C 2443.74,730.975 2447.41,713.809 2450.5,696.5C 2458.83,696.5 2467.17,696.5 2475.5,696.5C 2474.88,720.853 2473.88,745.186 2472.5,769.5C 2403.17,769.5 2333.83,769.5 2264.5,769.5C 2264.09,763.379 2264.59,757.379 2266,751.5C 2317.83,675 2369.67,598.5 2421.5,522C 2382.84,522.212 2344.17,522.379 2305.5,522.5C 2301.83,539.833 2298.17,557.167 2294.5,574.5C 2286.17,574.5 2277.83,574.5 2269.5,574.5C 2270.64,550.173 2271.64,525.84 2272.5,501.5 Z"/></g>
<g><path style="opacity:1" fill="#0c0b09" d="M 470.5,569.5 C 499.906,569.087 518.072,583.087 525,611.5C 542.473,585.596 566.806,571.596 598,569.5C 629.517,571.347 647.184,588.014 651,619.5C 652.444,662.477 652.944,705.477 652.5,748.5C 662.484,749.646 672.484,750.646 682.5,751.5C 682.5,757.5 682.5,763.5 682.5,769.5C 650.167,769.5 617.833,769.5 585.5,769.5C 585.5,763.5 585.5,757.5 585.5,751.5C 595.516,750.646 605.516,749.646 615.5,748.5C 615.556,723.164 615.889,697.83 616.5,672.5C 616.761,656.433 615.928,640.433 614,624.5C 610.366,607.868 600.033,599.868 583,600.5C 569.138,600.841 556.305,604.674 544.5,612C 538.403,615.799 532.569,619.965 527,624.5C 527.472,665.799 527.638,707.132 527.5,748.5C 537.5,749.5 547.5,750.5 557.5,751.5C 557.5,757.5 557.5,763.5 557.5,769.5C 525.167,769.5 492.833,769.5 460.5,769.5C 460.5,763.5 460.5,757.5 460.5,751.5C 470.517,750.665 480.517,749.665 490.5,748.5C 491.552,712.174 491.719,675.84 491,639.5C 490.669,608.167 475.169,595.667 444.5,602C 429.351,606.169 415.851,613.336 404,623.5C 403.5,665.165 403.333,706.832 403.5,748.5C 413.158,749.582 422.825,750.582 432.5,751.5C 432.5,757.5 432.5,763.5 432.5,769.5C 399.833,769.5 367.167,769.5 334.5,769.5C 334.5,763.5 334.5,757.5 334.5,751.5C 345.181,750.647 355.848,749.647 366.5,748.5C 366.757,702.825 366.424,657.158 365.5,611.5C 354.484,611.07 343.484,610.404 332.5,609.5C 332.193,603.907 332.527,598.407 333.5,593C 350.5,586 367.5,579 384.5,572C 388.262,571.854 391.928,572.52 395.5,574C 396.126,574.75 396.626,575.584 397,576.5C 398.26,588.175 399.594,599.842 401,611.5C 417.998,587.093 441.164,573.093 470.5,569.5 Z"/></g>
<g><path style="opacity:1" fill="#0c0b09" d="M 1360.5,569.5 C 1408.07,570.684 1439.57,593.684 1455,638.5C 1464.53,673.829 1459.53,706.829 1440,737.5C 1417.18,765.45 1387.68,777.617 1351.5,774C 1306.82,766.651 1279.65,740.818 1270,696.5C 1264.3,665.402 1269.63,636.402 1286,609.5C 1304.67,584.746 1329.51,571.413 1360.5,569.5 Z M 1355.5,590.5 C 1387.27,588.973 1407.1,603.64 1415,634.5C 1421.77,663.463 1420.77,692.129 1412,720.5C 1399.87,747.817 1379.04,758.651 1349.5,753C 1335.04,748.871 1324.54,740.038 1318,726.5C 1308.98,703.321 1305.98,679.321 1309,654.5C 1309.94,634.323 1317.11,616.823 1330.5,602C 1337.91,595.958 1346.24,592.125 1355.5,590.5 Z"/></g>
<g><path style="opacity:1" fill="#0c0b09" d="M 801.5,570.5 C 861.671,572.161 895.504,602.828 903,662.5C 905.961,696.96 895.461,726.46 871.5,751C 840.283,775.414 805.95,780.747 768.5,767C 733.492,750.291 714.659,722.458 712,683.5C 708.902,649.792 718.735,620.625 741.5,596C 758.624,580.602 778.624,572.102 801.5,570.5 Z M 801.5,590.5 C 828.125,589.218 846.292,600.884 856,625.5C 866,657.167 866,688.833 856,720.5C 843.881,747.811 823.048,758.645 793.5,753C 771.749,745.568 758.916,730.402 755,707.5C 750.356,684.171 750.356,660.837 755,637.5C 758.301,620.232 767.134,606.732 781.5,597C 788,593.888 794.667,591.721 801.5,590.5 Z"/></g>
<g><path style="opacity:1" fill="#0c0b09" d="M 1022.5,570.5 C 1046.33,568.706 1068,574.539 1087.5,588C 1097.77,596.543 1104.77,607.21 1108.5,620C 1103.98,635.266 1093.98,640.599 1078.5,636C 1074.05,633.886 1070.55,630.719 1068,626.5C 1064.18,615.548 1060.51,604.548 1057,593.5C 1013.81,584.434 987.146,601.434 977,644.5C 971.388,670.599 974.388,695.599 986,719.5C 998.665,738.418 1016.5,747.752 1039.5,747.5C 1062.48,746.678 1081.14,737.344 1095.5,719.5C 1100.21,722.863 1104.54,726.696 1108.5,731C 1089.05,763.391 1060.39,777.724 1022.5,774C 969.797,768.629 941.297,739.463 937,686.5C 934.442,657.729 941.109,631.396 957,607.5C 973.79,586.19 995.623,573.856 1022.5,570.5 Z"/></g>
<g><path style="opacity:1" fill="#0c0b09" d="M 1624.5,570.5 C 1654.41,568.015 1673.57,581.015 1682,609.5C 1683.54,616.422 1684.54,623.422 1685,630.5C 1685.5,669.832 1685.67,709.165 1685.5,748.5C 1695.15,749.702 1704.82,750.869 1714.5,752C 1715.47,757.741 1715.81,763.575 1715.5,769.5C 1683.17,769.5 1650.83,769.5 1618.5,769.5C 1618.19,763.575 1618.53,757.741 1619.5,752C 1629.51,750.832 1639.51,749.665 1649.5,748.5C 1649.96,708.136 1649.46,667.803 1648,627.5C 1644.9,609.233 1634.06,600.233 1615.5,600.5C 1594.71,602.396 1576.38,610.063 1560.5,623.5C 1559.5,665.161 1559.17,706.828 1559.5,748.5C 1569.12,749.911 1578.79,750.911 1588.5,751.5C 1588.5,757.5 1588.5,763.5 1588.5,769.5C 1556.17,769.5 1523.83,769.5 1491.5,769.5C 1491.19,763.575 1491.53,757.741 1492.5,752C 1502.51,750.796 1512.51,749.629 1522.5,748.5C 1522.8,702.819 1522.46,657.152 1521.5,611.5C 1510.8,611.212 1500.14,610.546 1489.5,609.5C 1489.17,603.794 1489.5,598.128 1490.5,592.5C 1507.96,585.402 1525.46,578.402 1543,571.5C 1545.87,572.401 1548.7,573.401 1551.5,574.5C 1553.58,586.783 1555.41,599.116 1557,611.5C 1573.95,588.452 1596.45,574.786 1624.5,570.5 Z"/></g>
<g><path style="opacity:1" fill="#0c0b09" d="M 1197.5,571.5 C 1201.22,572.017 1204.89,572.85 1208.5,574C 1209.1,575.062 1209.43,576.228 1209.5,577.5C 1208.51,634.484 1208.18,691.484 1208.5,748.5C 1218.48,749.665 1228.48,750.665 1238.5,751.5C 1238.5,757.5 1238.5,763.5 1238.5,769.5C 1205.83,769.5 1173.17,769.5 1140.5,769.5C 1140.5,763.5 1140.5,757.5 1140.5,751.5C 1150.84,750.573 1161.17,749.573 1171.5,748.5C 1171.81,702.814 1171.47,657.147 1170.5,611.5C 1159.81,611.118 1149.15,610.451 1138.5,609.5C 1138.5,603.833 1138.5,598.167 1138.5,592.5C 1158.46,586.072 1178.12,579.072 1197.5,571.5 Z"/></g>
</svg>
