<?xml version="1.0" standalone="no"?>
<!DOCTYPE svg PUBLIC "-//W3C//DTD SVG 20010904//EN"
 "http://www.w3.org/TR/2001/REC-SVG-20010904/DTD/svg10.dtd">
<svg version="1.0" xmlns="http://www.w3.org/2000/svg"
 width="2560.000000pt" height="817.000000pt" viewBox="0 0 2560.000000 817.000000"
 preserveAspectRatio="xMidYMid meet">

<g transform="translate(0.000000,817.000000) scale(0.100000,-0.100000)"
fill="#000000" stroke="none">
<path d="M17500 2992 l0 -99 193 -13 194 -12 6 -331 c4 -182 7 -536 7 -787 0
-251 -3 -605 -7 -787 l-6 -331 -194 -12 -193 -13 0 -99 0 -98 1045 0 1045 0 4
23 c5 23 36 654 36 720 l0 37 -127 0 -128 0 -59 -280 -60 -280 -471 0 -472 0
-6 107 c-9 137 -9 1873 -1 2019 l7 111 198 13 199 13 0 98 0 99 -605 0 -605 0
0 -98z"/>
<path d="M19720 2991 l0 -98 180 -13 179 -13 4 -831 c3 -796 4 -835 24 -926
41 -185 89 -298 180 -418 168 -221 451 -341 808 -342 520 -1 859 270 959 765
32 162 36 265 36 1006 l0 746 185 13 185 13 0 98 0 99 -515 0 -515 0 0 -98 0
-99 178 -12 c97 -6 194 -14 215 -17 l39 -6 -5 -757 c-4 -710 -6 -763 -25 -866
-65 -346 -195 -512 -459 -587 -101 -29 -303 -31 -403 -5 -245 65 -385 225
-453 522 -20 86 -21 124 -24 891 l-4 802 33 5 c18 3 113 11 211 18 l177 12 0
99 0 98 -595 0 -595 0 0 -99z"/>
<path d="M22720 3048 c0 -24 -7 -178 -15 -343 -8 -165 -15 -310 -15 -322 0
-23 2 -23 129 -23 l129 0 6 28 c25 118 106 485 108 487 2 1 261 5 576 8 l572
6 -194 -287 c-106 -158 -460 -680 -785 -1161 l-591 -874 0 -79 0 -78 1045 0
c575 0 1045 1 1045 3 3 15 30 618 30 665 l0 62 -127 0 -128 0 -55 -258 -55
-257 -640 -7 c-352 -4 -641 -5 -643 -3 -2 2 350 526 782 1164 l786 1161 0 75
0 75 -980 0 -980 0 0 -42z"/>
</g>
</svg>
