<svg version="1.1" id="Layer_1" xmlns="http://www.w3.org/2000/svg" xmlns:xlink="http://www.w3.org/1999/xlink" x="0px" y="0px"
	 width="100%" viewBox="0 0 2560 820" enable-background="new 0 0 2560 820" xml:space="preserve">
<path fill="#000000" opacity="1.000000" stroke="none" 
	d="
M1614.000000,821.000000 
	C1076.000122,821.000000 538.500122,821.000000 1.000144,821.000000 
	C1.000096,547.666748 1.000096,274.333527 1.000048,1.000218 
	C854.333191,1.000145 1707.666382,1.000145 2560.999512,1.000073 
	C2560.999756,274.333099 2560.999756,547.666199 2561.000000,820.999634 
	C2245.500000,821.000000 1930.000000,821.000000 1614.000000,821.000000 
M2150.500000,791.000000 
	C2265.253174,791.000000 2380.006348,791.000000 2494.613281,791.000000 
	C2494.613281,537.594360 2494.613281,284.873657 2494.613281,32.253967 
	C2241.623779,32.253967 1989.021118,32.253967 1736.298096,32.253967 
	C1736.298096,285.228668 1736.298096,537.949280 1736.298096,791.000000 
	C1874.230591,791.000000 2011.865356,791.000000 2150.500000,791.000000 
M404.000000,706.500000 
	C404.000000,684.835205 404.000000,663.170349 404.000000,641.505554 
	C404.000000,624.377441 403.994904,624.369568 418.393951,615.079956 
	C432.020172,606.288879 446.684357,601.240540 463.168488,601.943726 
	C475.721954,602.479248 485.165741,608.456543 488.789337,620.502747 
	C491.110107,628.218018 492.749542,636.467896 492.779388,644.485291 
	C492.905121,678.288025 492.355896,712.094116 491.824036,745.895386 
	C491.801880,747.303772 489.683838,749.567322 488.198029,749.901306 
	C483.353333,750.990479 478.314087,751.175903 473.412689,752.058777 
	C460.545410,754.376404 462.127136,750.377625 462.015961,764.405212 
	C461.964233,770.929321 462.080841,770.992859 468.817902,770.995605 
	C494.316559,771.006042 519.815857,771.112305 545.313599,770.956543 
	C559.891541,770.867432 557.831421,773.757446 558.004944,757.274414 
	C558.035522,754.367859 556.825928,753.185059 553.895325,752.909790 
	C547.279846,752.288269 540.712219,751.127075 534.092346,750.591736 
	C529.257324,750.200806 527.852783,748.107361 527.888550,743.275574 
	C528.110474,713.278809 528.056519,683.279358 527.962280,653.281250 
	C527.937256,645.305969 527.359375,637.333374 527.257263,629.356689 
	C527.238281,627.872131 527.830139,625.783020 528.898682,624.970459 
	C545.535461,612.318604 562.918823,601.561523 585.015869,601.938782 
	C603.108582,602.247620 613.538391,610.739563 615.869629,628.583801 
	C617.072632,637.791748 617.898865,647.125000 617.890625,656.400757 
	C617.866821,683.205994 617.285400,710.010315 617.021118,736.815918 
	C616.897461,749.359741 617.000061,749.361084 604.413940,751.202942 
	C602.605347,751.467590 600.799683,751.756897 598.986450,751.985596 
	C584.181274,753.852783 587.558350,751.769836 586.931274,764.809082 
	C586.698608,769.646851 588.451538,771.121460 593.225830,771.086975 
	C618.889832,770.901428 644.556519,771.110657 670.220947,770.957092 
	C684.908264,770.869263 682.823547,773.709839 683.005310,757.367065 
	C683.036865,754.528442 681.986328,753.201965 678.987793,752.914551 
	C672.208618,752.264893 665.481201,751.017151 658.695557,750.512329 
	C653.813782,750.149170 652.893677,747.787842 652.913574,743.368958 
	C653.069946,708.704773 653.326050,674.034729 652.803467,639.377808 
	C652.644470,628.837219 651.172852,618.061035 648.486633,607.871521 
	C644.026428,590.952820 633.732605,578.482788 616.121460,573.623840 
	C606.216187,570.890869 596.027405,570.831055 585.983093,572.579712 
	C562.033325,576.749390 544.129150,590.471313 529.537476,609.193604 
	C528.468933,610.564697 527.323486,611.875793 525.551025,614.014465 
	C524.735779,611.254578 524.254944,609.552917 523.730835,607.864746 
	C520.676025,598.025574 516.543091,588.747314 508.208099,582.194885 
	C494.358795,571.307434 478.213928,569.755066 461.733093,572.745361 
	C439.674713,576.747559 422.413025,589.166016 408.194672,606.124634 
	C406.359497,608.313477 404.417633,610.412903 401.659698,613.532776 
	C400.333832,602.620728 398.990387,593.146545 398.082550,583.630859 
	C397.237000,574.768311 391.915527,571.282166 383.445007,574.685364 
	C370.001495,580.086609 356.584229,585.555725 343.210510,591.127197 
	C333.384064,595.221069 334.001465,592.839050 334.001251,604.635681 
	C334.001221,605.302307 334.045349,605.970825 334.008331,606.635132 
	C333.849976,609.475403 335.003754,610.872437 338.017395,611.068420 
	C346.137329,611.596619 354.237732,612.422241 362.356964,612.964661 
	C364.978729,613.139771 366.887695,613.536743 367.000885,616.761597 
	C367.239929,623.571106 367.876099,630.371948 367.953705,637.180847 
	C368.109497,650.845032 368.000153,664.512207 367.999969,678.178162 
	C367.999634,700.177002 367.968658,722.175903 368.031281,744.174561 
	C368.040771,747.501099 367.751526,750.004272 363.470245,750.252869 
	C358.671478,750.531555 353.898438,751.330078 349.127502,751.997314 
	C333.387604,754.198914 336.374390,750.414612 335.996246,766.684326 
	C335.919647,769.979797 337.527008,771.021606 340.598053,771.016663 
	C369.929718,770.969543 399.261536,770.966125 428.593170,771.014282 
	C431.814148,771.019592 433.641663,769.527405 432.885040,766.519348 
	C431.756165,762.031799 436.485321,756.066711 429.598785,753.049011 
	C429.164764,752.858887 428.608429,752.961975 428.113739,752.894043 
	C421.692444,752.012512 415.292053,750.903442 408.843964,750.320618 
	C404.899139,749.963989 403.903534,748.124573 403.946472,744.497375 
	C404.092438,732.166443 404.000854,719.832703 404.000000,706.500000 
M302.861755,756.141785 
	C303.560394,738.365723 304.226074,720.588257 304.986847,702.814819 
	C305.131073,699.444946 303.924866,697.863281 300.414703,697.976501 
	C296.086426,698.116150 291.718628,698.329224 287.425323,697.915161 
	C282.450439,697.435425 280.739410,699.699463 279.963196,704.236023 
	C277.830048,716.703918 275.347076,729.112000 272.991608,741.541748 
	C271.579346,748.994080 271.570129,748.996338 264.228119,748.999023 
	C253.729126,749.002808 243.230148,749.000122 232.731155,748.999939 
	C212.399780,748.999573 192.067673,748.907043 171.737640,749.072144 
	C167.416351,749.107239 165.750488,747.728210 165.907440,743.322571 
	C166.042465,739.532593 165.097595,735.714417 165.085327,731.907288 
	C164.996796,704.410400 165.036331,676.913147 164.995865,649.416016 
	C164.991745,646.617859 165.910263,644.999329 168.997192,645.006042 
	C186.495224,645.044373 203.993408,645.032532 221.491531,645.024109 
	C224.278885,645.022766 225.650909,646.222107 226.029205,649.134521 
	C226.886017,655.731201 227.888580,662.318420 229.122574,668.854614 
	C231.789673,682.981628 229.048325,680.841187 243.442978,680.984497 
	C250.983017,681.059509 250.995850,680.987183 250.997635,673.645020 
	C251.003555,649.314026 250.999985,624.983032 251.000000,600.652039 
	C251.000015,586.890137 250.997589,587.075317 237.242416,586.897217 
	C232.616592,586.837341 230.673050,588.448547 230.044205,592.925903 
	C228.841141,601.491577 227.155731,609.988525 225.858002,618.542419 
	C225.257263,622.502136 223.543137,624.151123 219.280411,624.089722 
	C203.451904,623.861694 187.618118,624.008545 171.786316,623.995483 
	C165.087860,623.989929 164.948105,623.919250 165.016006,617.374084 
	C165.313080,588.736755 165.781219,560.100464 165.893127,531.462708 
	C165.912796,526.431702 167.393524,524.863220 172.449097,524.900574 
	C200.611526,525.108643 228.777802,525.151978 256.938873,524.866699 
	C262.296082,524.812500 264.125641,526.737793 264.966309,531.663513 
	C267.066467,543.968933 269.874603,556.155640 271.873901,568.475098 
	C272.726807,573.730530 274.983765,575.569214 280.125427,575.075378 
	C284.088654,574.694824 288.125641,574.834229 292.114746,575.038086 
	C296.302643,575.252014 297.159088,573.142212 296.963348,569.484192 
	C295.906586,549.737854 294.902191,529.987976 294.039490,510.232391 
	C293.724915,503.029083 293.925751,503.003326 286.824188,503.002838 
	C222.330414,502.998260 157.836639,503.000031 93.342873,503.000732 
	C92.343010,503.000763 91.341316,503.052246 90.343620,503.008301 
	C87.496025,502.882935 85.948517,504.027039 86.004303,507.070221 
	C86.077599,511.068359 86.053398,515.069153 86.014732,519.068237 
	C85.988449,521.785889 87.296104,522.858215 89.977119,523.013184 
	C100.093971,523.597961 110.196236,524.458313 120.317146,524.936401 
	C123.730713,525.097717 124.990761,526.327820 125.041115,529.722412 
	C125.263245,544.695740 125.990623,559.667419 125.940483,574.637756 
	C125.751877,630.939209 125.330879,687.239807 124.996727,743.540771 
	C124.994751,743.874023 124.967560,744.208862 124.989929,744.540344 
	C125.204414,747.718323 123.719070,748.877197 120.553490,749.052429 
	C112.596519,749.492798 104.648727,750.167908 96.714005,750.924500 
	C85.987267,751.947327 85.993988,752.017822 86.000015,762.694519 
	C86.004700,770.993774 86.004700,770.999023 94.106590,770.999207 
	C160.766815,771.000671 227.427048,771.000061 294.087280,770.999390 
	C295.253815,770.999329 296.423859,770.929382 297.586182,770.997131 
	C300.802460,771.184509 302.028503,769.652832 302.038574,766.502625 
	C302.048645,763.356934 302.469513,760.212524 302.861755,756.141785 
M1655.500000,771.000000 
	C1673.994019,770.998108 1692.488159,770.964905 1710.981934,771.024414 
	C1714.128906,771.034546 1716.708862,770.185669 1715.874146,766.633484 
	C1714.799805,762.061096 1719.847412,755.181458 1711.916138,753.200928 
	C1706.004883,751.724792 1699.746460,751.579468 1693.626587,751.014771 
	C1686.573975,750.364197 1686.004150,749.871582 1686.002930,742.954956 
	C1685.996704,709.965393 1686.234985,676.973083 1685.860840,643.987793 
	C1685.744629,633.737122 1684.768188,623.347656 1682.768433,613.303955 
	C1680.192017,600.363831 1674.836426,588.475281 1663.172241,580.807251 
	C1648.926636,571.442200 1633.239746,570.645386 1617.090698,573.780945 
	C1593.841919,578.295044 1576.533936,592.223083 1561.361694,609.436035 
	C1560.394043,610.533813 1559.283203,611.505432 1557.756714,613.011597 
	C1557.282715,611.187378 1556.983521,610.408020 1556.886353,609.604126 
	C1555.889526,601.360535 1554.789551,593.126282 1553.986938,584.863220 
	C1552.983032,574.526550 1547.954834,571.399170 1538.235474,575.336975 
	C1525.889893,580.339050 1513.546021,585.345276 1501.202026,590.351135 
	C1490.305542,594.770020 1490.380859,594.767212 1490.957520,606.580261 
	C1491.094604,609.387512 1491.995972,610.978516 1494.894775,611.235352 
	C1501.176758,611.792114 1507.444946,612.725708 1513.736206,612.907715 
	C1524.125244,613.208252 1521.934692,611.506287 1523.939209,623.031616 
	C1524.080322,623.842407 1523.996460,624.694458 1523.996460,625.527344 
	C1523.998657,665.014893 1523.918579,704.502747 1524.102539,743.989441 
	C1524.125244,748.828735 1522.145508,750.562683 1517.832397,750.911804 
	C1512.863403,751.314087 1507.871460,751.608032 1502.945068,752.328613 
	C1492.941528,753.791687 1492.956909,753.897034 1493.000122,764.144958 
	C1493.028931,770.976196 1493.028931,770.994263 1500.054077,770.996582 
	C1525.546021,771.004883 1551.038452,771.098877 1576.529663,770.961304 
	C1590.819214,770.884216 1588.818359,773.527588 1589.014771,757.564941 
	C1589.052856,754.470947 1587.911133,753.166443 1584.671753,752.929810 
	C1578.213745,752.458130 1571.789795,751.523193 1565.350586,750.790466 
	C1561.694580,750.374329 1559.907104,748.802856 1559.921997,744.664001 
	C1560.059448,706.509888 1559.939331,668.354675 1560.153809,630.201294 
	C1560.167114,627.813477 1561.741455,624.638794 1563.631592,623.184143 
	C1577.680664,612.371765 1593.088135,604.209106 1611.024658,602.361328 
	C1622.375000,601.192139 1633.614258,602.105469 1641.844849,611.471497 
	C1649.190918,619.831238 1650.736328,630.502747 1650.852539,640.975952 
	C1651.234985,675.460876 1650.924438,709.952942 1651.088501,744.441284 
	C1651.109253,748.825867 1649.226440,750.447021 1645.374512,750.829773 
	C1640.743408,751.289856 1636.090942,751.590576 1631.483398,752.221191 
	C1619.505005,753.860596 1619.628540,753.914612 1619.936523,766.100769 
	C1620.029907,769.791321 1621.405762,771.091309 1625.009888,771.041565 
	C1634.838257,770.905823 1644.669800,770.998047 1655.500000,771.000000 
M1437.409668,742.868469 
	C1441.359375,736.712463 1446.066528,730.909119 1449.126099,724.338562 
	C1461.554077,697.648010 1463.215820,669.886780 1455.876221,641.510986 
	C1449.717773,617.702332 1436.158447,599.021301 1415.506592,585.901978 
	C1394.537354,572.581177 1371.370483,568.707214 1347.058716,573.181946 
	C1321.283936,577.926025 1300.430420,590.968262 1286.457153,613.336487 
	C1266.763672,644.861450 1264.667603,678.893066 1275.866943,713.571716 
	C1291.150513,760.897278 1339.050049,783.597473 1384.934692,773.993408 
	C1405.673584,769.652710 1422.974365,759.319458 1437.409668,742.868469 
M891.175903,727.641235 
	C892.969971,723.704224 895.011108,719.859192 896.516724,715.814758 
	C904.372009,694.713623 906.093201,673.002563 901.829712,650.962769 
	C896.754944,624.729309 884.368042,602.917175 861.507507,588.052124 
	C842.734009,575.844727 822.139160,570.855225 799.755615,572.928040 
	C765.927063,576.060608 740.580566,592.409302 725.009094,622.410645 
	C711.596436,648.252625 710.084106,675.910522 716.530823,704.108887 
	C721.433716,725.554016 732.441101,743.470947 749.833069,756.655090 
	C770.593750,772.393005 794.444519,778.510498 820.460388,775.053955 
	C851.504517,770.929382 875.271179,755.759521 891.175903,727.641235 
M961.188721,747.292847 
	C966.750916,752.005798 971.876099,757.398499 977.955627,761.306824 
	C997.813538,774.073120 1019.855408,776.938965 1043.058960,775.240234 
	C1068.481445,773.378845 1088.003174,761.520813 1102.704102,741.471863 
	C1109.268799,732.518921 1110.510132,732.582581 1100.976929,725.271790 
	C1099.556274,724.182373 1098.241821,722.954834 1096.455933,721.430847 
	C1095.432129,722.685608 1094.657349,723.766235 1093.752808,724.724304 
	C1076.091064,743.430908 1054.785156,751.870361 1028.948608,748.064819 
	C1009.100586,745.141418 993.692261,735.423401 984.896179,717.413635 
	C971.219666,689.411377 972.049194,660.407166 981.898560,631.436035 
	C985.829773,619.872559 992.627686,609.989258 1002.593689,602.658142 
	C1018.399841,591.031006 1036.185547,590.068970 1054.573608,593.870239 
	C1056.730957,594.316162 1059.256104,597.029968 1060.060425,599.253296 
	C1063.059937,607.543945 1065.145020,616.162720 1068.071899,624.482971 
	C1072.513184,637.108398 1086.436279,642.635010 1098.318359,636.828003 
	C1105.870239,633.137207 1109.638550,624.704773 1107.037231,616.722595 
	C1102.614624,603.151672 1093.872192,592.755920 1081.841187,585.529907 
	C1054.532349,569.127686 1025.723267,567.687256 996.513184,579.498047 
	C971.328796,589.681091 954.670288,608.745117 945.404114,633.942444 
	C938.603821,652.434021 936.594299,671.667236 938.863037,691.437805 
	C941.216370,711.945251 947.181519,730.777588 961.188721,747.292847 
M1151.607422,611.998840 
	C1155.913452,612.330505 1160.214355,612.790588 1164.526733,612.965454 
	C1171.997559,613.268433 1172.503906,613.674133 1172.954712,621.269104 
	C1173.043579,622.764343 1172.998413,624.268005 1172.998535,625.767822 
	C1173.000610,650.766602 1173.000488,675.765442 1172.999878,700.764221 
	C1172.999512,715.430176 1172.927124,730.096802 1173.048218,744.761719 
	C1173.076538,748.205811 1172.088623,749.992615 1168.384644,750.257141 
	C1163.585938,750.599915 1158.820068,751.396606 1154.038696,751.988098 
	C1139.137207,753.831604 1142.560303,751.820923 1141.933960,764.757385 
	C1141.702759,769.530518 1143.333618,771.141296 1148.174316,771.090454 
	C1168.671021,770.875244 1189.171387,771.001282 1209.670410,770.999268 
	C1218.003296,770.998474 1226.343262,771.160767 1234.662720,770.823181 
	C1236.137207,770.763367 1238.866333,768.414917 1238.728760,767.449219 
	C1238.050171,762.688171 1241.755005,757.125000 1236.477051,753.208130 
	C1235.910645,752.787720 1234.849609,753.058533 1234.024292,752.957886 
	C1228.083618,752.233521 1222.131226,751.588867 1216.208374,750.739136 
	C1208.999512,749.704834 1209.001709,749.628662 1209.001343,742.410400 
	C1208.998657,692.912781 1208.979004,643.415100 1209.035767,593.917542 
	C1209.040894,589.442505 1209.752319,584.966431 1209.716309,580.494202 
	C1209.702393,578.768372 1208.816895,575.791748 1207.816895,575.556091 
	C1204.097412,574.679504 1199.773315,573.496277 1196.379150,574.596558 
	C1179.430298,580.090515 1162.736572,586.366211 1145.878784,592.150208 
	C1141.431152,593.676147 1139.711914,596.049072 1139.879517,600.896545 
	C1140.240479,611.331360 1139.969238,611.340759 1151.607422,611.998840 
M1394.008179,508.492340 
	C1399.683350,502.475098 1405.811157,496.812195 1410.886963,490.325989 
	C1414.787964,485.340881 1414.900391,479.040222 1411.983154,473.290710 
	C1409.230469,467.865814 1404.059448,465.597961 1398.307739,465.602936 
	C1390.816406,465.609406 1384.881470,469.284821 1380.757568,475.455780 
	C1369.203003,492.745697 1357.678467,510.058044 1346.373047,527.511230 
	C1339.215088,538.561584 1339.974487,535.457520 1349.291138,543.002441 
	C1352.156494,545.322937 1354.397949,544.819092 1356.756470,542.662537 
	C1369.016479,531.452148 1381.256958,520.220459 1394.008179,508.492340 
M1170.514526,487.999176 
	C1168.054688,492.254181 1164.285278,496.247162 1163.371948,500.811615 
	C1160.201416,516.658081 1168.371826,528.532593 1184.086426,532.485291 
	C1195.180298,535.275757 1208.876099,528.622986 1213.739380,518.080933 
	C1219.131958,506.392090 1215.562744,492.519226 1205.384644,485.606842 
	C1195.043335,478.583618 1182.104248,479.297821 1170.514526,487.999176 
z"/>
<path fill="#FF7D00" opacity="1.000000" stroke="none" 
	d="
M2150.000000,791.000000 
	C2011.865356,791.000000 1874.230591,791.000000 1736.298096,791.000000 
	C1736.298096,537.949280 1736.298096,285.228668 1736.298096,32.253967 
	C1989.021118,32.253967 2241.623779,32.253967 2494.613281,32.253967 
	C2494.613281,284.873657 2494.613281,537.594360 2494.613281,791.000000 
	C2380.006348,791.000000 2265.253174,791.000000 2150.000000,791.000000 
M1790.203857,525.491028 
	C1790.361938,525.704346 1790.554810,525.879272 1790.900757,526.944458 
	C1791.241577,542.374146 1791.915283,557.804932 1791.864014,573.233337 
	C1791.671509,631.153320 1791.242554,689.072510 1790.897339,746.992004 
	C1790.895386,747.322937 1790.822266,747.653503 1790.467041,748.218018 
	C1790.276855,748.400635 1790.116089,748.606201 1789.075439,748.976013 
	C1776.448486,749.760071 1763.821533,750.544128 1751.395508,751.315674 
	C1751.395508,758.100647 1751.395508,764.494446 1751.395508,770.710938 
	C1821.035889,770.710938 1890.280640,770.710938 1959.559814,770.710938 
	C1960.808350,744.748474 1962.042969,719.076233 1963.284912,693.249878 
	C1954.687988,693.249878 1946.930420,693.249878 1939.420044,693.249878 
	C1935.421265,711.951660 1931.484375,730.364319 1927.579468,748.626831 
	C1895.530640,748.626831 1863.808350,748.626831 1832.109253,748.626831 
	C1829.907227,706.576172 1830.173584,539.872070 1832.457764,525.342896 
	C1845.201416,524.452087 1857.964966,523.559875 1870.640869,522.673767 
	C1870.640869,515.973999 1870.640869,509.582275 1870.640869,503.391357 
	C1830.565918,503.391357 1790.851074,503.391357 1751.259033,503.391357 
	C1751.259033,510.059479 1751.259033,516.333679 1751.259033,522.649780 
	C1764.337036,523.499268 1777.160889,524.332275 1790.203857,525.491028 
M2187.466797,659.217896 
	C2187.276611,659.400391 2187.115967,659.605896 2186.251465,660.331787 
	C2186.167725,663.653687 2185.895996,666.983337 2186.032471,670.296204 
	C2186.620605,684.594177 2184.130615,698.373962 2178.867188,711.606995 
	C2172.246094,728.253723 2161.051270,740.346252 2143.584961,745.984741 
	C2128.514648,750.849731 2113.145020,751.371521 2097.916016,747.804321 
	C2080.845215,743.805481 2067.634033,733.976257 2060.029541,717.853088 
	C2052.586914,702.072693 2049.900391,685.193970 2049.912842,667.817810 
	C2049.946045,622.515442 2049.924072,577.213074 2049.924072,531.910706 
	C2049.924072,530.106262 2049.924316,528.301819 2049.924316,525.874817 
	C2063.754883,524.772766 2077.265625,523.696167 2090.620605,522.632019 
	C2090.620605,515.928223 2090.620605,509.537872 2090.620605,503.398987 
	C2051.201416,503.398987 2012.162964,503.398987 1973.262451,503.398987 
	C1973.262451,510.074341 1973.262451,516.347595 1973.262451,522.720520 
	C1985.338623,523.547058 1997.161743,524.356262 2009.203857,525.491150 
	C2009.361938,525.704285 2009.554565,525.879150 2009.900269,526.944336 
	C2009.907837,573.605408 2009.877441,620.266602 2009.966675,666.927551 
	C2009.978882,673.359802 2010.698608,679.787415 2010.890137,686.223206 
	C2011.268799,698.945374 2014.215332,711.115662 2018.998657,722.807678 
	C2026.443237,741.005310 2038.319336,755.450317 2056.029785,764.581360 
	C2082.796631,778.381714 2111.096436,779.997803 2139.918701,773.767456 
	C2161.187256,769.170044 2178.552734,757.938904 2190.883789,739.544006 
	C2204.485352,719.253845 2209.291016,696.210754 2209.689209,672.551636 
	C2210.482666,625.403870 2209.924072,578.233398 2209.924072,531.072266 
	C2209.924072,529.142334 2209.924316,527.212463 2209.924316,525.391113 
	C2222.339600,524.447021 2234.103760,523.552429 2245.750977,522.666748 
	C2245.750977,515.962097 2245.750977,509.689178 2245.750977,503.292053 
	C2211.779785,503.292053 2178.058350,503.292053 2144.336426,503.292053 
	C2144.336426,509.982941 2144.336426,516.376831 2144.336426,522.403137 
	C2158.795654,523.678711 2172.889893,524.922119 2187.203613,526.491211 
	C2187.361816,526.704224 2187.554443,526.879089 2187.900391,527.944458 
	C2187.861084,571.624390 2187.821533,615.304321 2187.466797,659.217896 
M2339.451660,750.999146 
	C2330.371094,750.999146 2321.290527,750.999146 2311.073975,750.999146 
	C2316.779785,742.740601 2321.884766,735.448669 2326.889893,728.088684 
	C2341.561768,706.514526 2356.212402,684.925842 2370.836426,663.319275 
	C2385.547119,641.584106 2400.216553,619.821106 2414.903320,598.069580 
	C2431.232178,573.885498 2447.248535,549.480591 2464.075439,525.648315 
	C2469.190674,518.403748 2469.316650,511.275024 2468.591553,503.325012 
	C2403.640381,503.325012 2338.917969,503.325012 2274.860352,503.325012 
	C2273.864258,509.919983 2272.400879,516.067688 2272.106445,522.270935 
	C2271.415283,536.851868 2271.268311,551.459106 2270.934570,566.056396 
	C2270.860352,569.305908 2270.923584,572.558594 2270.923584,575.791138 
	C2279.632080,575.791138 2287.591553,575.791138 2295.678223,575.791138 
	C2299.502441,558.397583 2303.289307,541.174255 2307.160889,523.565308 
	C2345.966309,523.565308 2384.092041,523.565308 2422.642578,523.565308 
	C2407.926514,545.295349 2393.420654,566.751953 2378.875488,588.181946 
	C2362.937012,611.664429 2346.916260,635.091187 2331.014404,658.598389 
	C2311.009033,688.171143 2291.375977,718.002319 2270.933350,747.268677 
	C2265.619873,754.875671 2265.777588,762.395630 2266.079590,770.678833 
	C2335.482422,770.678833 2404.532959,770.678833 2473.526611,770.678833 
	C2474.412598,746.287476 2475.286865,722.225525 2476.159424,698.207214 
	C2467.582764,698.207214 2459.949463,698.207214 2452.487793,698.207214 
	C2448.949951,714.315369 2445.292236,730.156006 2442.114014,746.092224 
	C2441.443848,749.451904 2440.131104,750.014221 2437.237549,750.038513 
	C2404.969238,750.309021 2372.701904,750.665710 2339.451660,750.999146 
z"/>
<path fill="#0D0C0A" opacity="1.000000" stroke="none" 
	d="
M404.000000,707.000000 
	C404.000854,719.832703 404.092438,732.166443 403.946472,744.497375 
	C403.903534,748.124573 404.899139,749.963989 408.843964,750.320618 
	C415.292053,750.903442 421.692444,752.012512 428.113739,752.894043 
	C428.608429,752.961975 429.164764,752.858887 429.598785,753.049011 
	C436.485321,756.066711 431.756165,762.031799 432.885040,766.519348 
	C433.641663,769.527405 431.814148,771.019592 428.593170,771.014282 
	C399.261536,770.966125 369.929718,770.969543 340.598053,771.016663 
	C337.527008,771.021606 335.919647,769.979797 335.996246,766.684326 
	C336.374390,750.414612 333.387604,754.198914 349.127502,751.997314 
	C353.898438,751.330078 358.671478,750.531555 363.470245,750.252869 
	C367.751526,750.004272 368.040771,747.501099 368.031281,744.174561 
	C367.968658,722.175903 367.999634,700.177002 367.999969,678.178162 
	C368.000153,664.512207 368.109497,650.845032 367.953705,637.180847 
	C367.876099,630.371948 367.239929,623.571106 367.000885,616.761597 
	C366.887695,613.536743 364.978729,613.139771 362.356964,612.964661 
	C354.237732,612.422241 346.137329,611.596619 338.017395,611.068420 
	C335.003754,610.872437 333.849976,609.475403 334.008331,606.635132 
	C334.045349,605.970825 334.001221,605.302307 334.001251,604.635681 
	C334.001465,592.839050 333.384064,595.221069 343.210510,591.127197 
	C356.584229,585.555725 370.001495,580.086609 383.445007,574.685364 
	C391.915527,571.282166 397.237000,574.768311 398.082550,583.630859 
	C398.990387,593.146545 400.333832,602.620728 401.659698,613.532776 
	C404.417633,610.412903 406.359497,608.313477 408.194672,606.124634 
	C422.413025,589.166016 439.674713,576.747559 461.733093,572.745361 
	C478.213928,569.755066 494.358795,571.307434 508.208099,582.194885 
	C516.543091,588.747314 520.676025,598.025574 523.730835,607.864746 
	C524.254944,609.552917 524.735779,611.254578 525.551025,614.014465 
	C527.323486,611.875793 528.468933,610.564697 529.537476,609.193604 
	C544.129150,590.471313 562.033325,576.749390 585.983093,572.579712 
	C596.027405,570.831055 606.216187,570.890869 616.121460,573.623840 
	C633.732605,578.482788 644.026428,590.952820 648.486633,607.871521 
	C651.172852,618.061035 652.644470,628.837219 652.803467,639.377808 
	C653.326050,674.034729 653.069946,708.704773 652.913574,743.368958 
	C652.893677,747.787842 653.813782,750.149170 658.695557,750.512329 
	C665.481201,751.017151 672.208618,752.264893 678.987793,752.914551 
	C681.986328,753.201965 683.036865,754.528442 683.005310,757.367065 
	C682.823547,773.709839 684.908264,770.869263 670.220947,770.957092 
	C644.556519,771.110657 618.889832,770.901428 593.225830,771.086975 
	C588.451538,771.121460 586.698608,769.646851 586.931274,764.809082 
	C587.558350,751.769836 584.181274,753.852783 598.986450,751.985596 
	C600.799683,751.756897 602.605347,751.467590 604.413940,751.202942 
	C617.000061,749.361084 616.897461,749.359741 617.021118,736.815918 
	C617.285400,710.010315 617.866821,683.205994 617.890625,656.400757 
	C617.898865,647.125000 617.072632,637.791748 615.869629,628.583801 
	C613.538391,610.739563 603.108582,602.247620 585.015869,601.938782 
	C562.918823,601.561523 545.535461,612.318604 528.898682,624.970459 
	C527.830139,625.783020 527.238281,627.872131 527.257263,629.356689 
	C527.359375,637.333374 527.937256,645.305969 527.962280,653.281250 
	C528.056519,683.279358 528.110474,713.278809 527.888550,743.275574 
	C527.852783,748.107361 529.257324,750.200806 534.092346,750.591736 
	C540.712219,751.127075 547.279846,752.288269 553.895325,752.909790 
	C556.825928,753.185059 558.035522,754.367859 558.004944,757.274414 
	C557.831421,773.757446 559.891541,770.867432 545.313599,770.956543 
	C519.815857,771.112305 494.316559,771.006042 468.817902,770.995605 
	C462.080841,770.992859 461.964233,770.929321 462.015961,764.405212 
	C462.127136,750.377625 460.545410,754.376404 473.412689,752.058777 
	C478.314087,751.175903 483.353333,750.990479 488.198029,749.901306 
	C489.683838,749.567322 491.801880,747.303772 491.824036,745.895386 
	C492.355896,712.094116 492.905121,678.288025 492.779388,644.485291 
	C492.749542,636.467896 491.110107,628.218018 488.789337,620.502747 
	C485.165741,608.456543 475.721954,602.479248 463.168488,601.943726 
	C446.684357,601.240540 432.020172,606.288879 418.393951,615.079956 
	C403.994904,624.369568 404.000000,624.377441 404.000000,641.505554 
	C404.000000,663.170349 404.000000,684.835205 404.000000,707.000000 
z"/>
<path fill="#0D0C0A" opacity="1.000000" stroke="none" 
	d="
M302.786011,756.604675 
	C302.469513,760.212524 302.048645,763.356934 302.038574,766.502625 
	C302.028503,769.652832 300.802460,771.184509 297.586182,770.997131 
	C296.423859,770.929382 295.253815,770.999329 294.087280,770.999390 
	C227.427048,771.000061 160.766815,771.000671 94.106590,770.999207 
	C86.004700,770.999023 86.004700,770.993774 86.000015,762.694519 
	C85.993988,752.017822 85.987267,751.947327 96.714005,750.924500 
	C104.648727,750.167908 112.596519,749.492798 120.553490,749.052429 
	C123.719070,748.877197 125.204414,747.718323 124.989929,744.540344 
	C124.967560,744.208862 124.994751,743.874023 124.996727,743.540771 
	C125.330879,687.239807 125.751877,630.939209 125.940483,574.637756 
	C125.990623,559.667419 125.263245,544.695740 125.041115,529.722412 
	C124.990761,526.327820 123.730713,525.097717 120.317146,524.936401 
	C110.196236,524.458313 100.093971,523.597961 89.977119,523.013184 
	C87.296104,522.858215 85.988449,521.785889 86.014732,519.068237 
	C86.053398,515.069153 86.077599,511.068359 86.004303,507.070221 
	C85.948517,504.027039 87.496025,502.882935 90.343620,503.008301 
	C91.341316,503.052246 92.343010,503.000763 93.342873,503.000732 
	C157.836639,503.000031 222.330414,502.998260 286.824188,503.002838 
	C293.925751,503.003326 293.724915,503.029083 294.039490,510.232391 
	C294.902191,529.987976 295.906586,549.737854 296.963348,569.484192 
	C297.159088,573.142212 296.302643,575.252014 292.114746,575.038086 
	C288.125641,574.834229 284.088654,574.694824 280.125427,575.075378 
	C274.983765,575.569214 272.726807,573.730530 271.873901,568.475098 
	C269.874603,556.155640 267.066467,543.968933 264.966309,531.663513 
	C264.125641,526.737793 262.296082,524.812500 256.938873,524.866699 
	C228.777802,525.151978 200.611526,525.108643 172.449097,524.900574 
	C167.393524,524.863220 165.912796,526.431702 165.893127,531.462708 
	C165.781219,560.100464 165.313080,588.736755 165.016006,617.374084 
	C164.948105,623.919250 165.087860,623.989929 171.786316,623.995483 
	C187.618118,624.008545 203.451904,623.861694 219.280411,624.089722 
	C223.543137,624.151123 225.257263,622.502136 225.858002,618.542419 
	C227.155731,609.988525 228.841141,601.491577 230.044205,592.925903 
	C230.673050,588.448547 232.616592,586.837341 237.242416,586.897217 
	C250.997589,587.075317 251.000015,586.890137 251.000000,600.652039 
	C250.999985,624.983032 251.003555,649.314026 250.997635,673.645020 
	C250.995850,680.987183 250.983017,681.059509 243.442978,680.984497 
	C229.048325,680.841187 231.789673,682.981628 229.122574,668.854614 
	C227.888580,662.318420 226.886017,655.731201 226.029205,649.134521 
	C225.650909,646.222107 224.278885,645.022766 221.491531,645.024109 
	C203.993408,645.032532 186.495224,645.044373 168.997192,645.006042 
	C165.910263,644.999329 164.991745,646.617859 164.995865,649.416016 
	C165.036331,676.913147 164.996796,704.410400 165.085327,731.907288 
	C165.097595,735.714417 166.042465,739.532593 165.907440,743.322571 
	C165.750488,747.728210 167.416351,749.107239 171.737640,749.072144 
	C192.067673,748.907043 212.399780,748.999573 232.731155,748.999939 
	C243.230148,749.000122 253.729126,749.002808 264.228119,748.999023 
	C271.570129,748.996338 271.579346,748.994080 272.991608,741.541748 
	C275.347076,729.112000 277.830048,716.703918 279.963196,704.236023 
	C280.739410,699.699463 282.450439,697.435425 287.425323,697.915161 
	C291.718628,698.329224 296.086426,698.116150 300.414703,697.976501 
	C303.924866,697.863281 305.131073,699.444946 304.986847,702.814819 
	C304.226074,720.588257 303.560394,738.365723 302.786011,756.604675 
z"/>
<path fill="#0D0C0A" opacity="1.000000" stroke="none" 
	d="
M1655.000000,771.000000 
	C1644.669800,770.998047 1634.838257,770.905823 1625.009888,771.041565 
	C1621.405762,771.091309 1620.029907,769.791321 1619.936523,766.100769 
	C1619.628540,753.914612 1619.505005,753.860596 1631.483398,752.221191 
	C1636.090942,751.590576 1640.743408,751.289856 1645.374512,750.829773 
	C1649.226440,750.447021 1651.109253,748.825867 1651.088501,744.441284 
	C1650.924438,709.952942 1651.234985,675.460876 1650.852539,640.975952 
	C1650.736328,630.502747 1649.190918,619.831238 1641.844849,611.471497 
	C1633.614258,602.105469 1622.375000,601.192139 1611.024658,602.361328 
	C1593.088135,604.209106 1577.680664,612.371765 1563.631592,623.184143 
	C1561.741455,624.638794 1560.167114,627.813477 1560.153809,630.201294 
	C1559.939331,668.354675 1560.059448,706.509888 1559.921997,744.664001 
	C1559.907104,748.802856 1561.694580,750.374329 1565.350586,750.790466 
	C1571.789795,751.523193 1578.213745,752.458130 1584.671753,752.929810 
	C1587.911133,753.166443 1589.052856,754.470947 1589.014771,757.564941 
	C1588.818359,773.527588 1590.819214,770.884216 1576.529663,770.961304 
	C1551.038452,771.098877 1525.546021,771.004883 1500.054077,770.996582 
	C1493.028931,770.994263 1493.028931,770.976196 1493.000122,764.144958 
	C1492.956909,753.897034 1492.941528,753.791687 1502.945068,752.328613 
	C1507.871460,751.608032 1512.863403,751.314087 1517.832397,750.911804 
	C1522.145508,750.562683 1524.125244,748.828735 1524.102539,743.989441 
	C1523.918579,704.502747 1523.998657,665.014893 1523.996460,625.527344 
	C1523.996460,624.694458 1524.080322,623.842407 1523.939209,623.031616 
	C1521.934692,611.506287 1524.125244,613.208252 1513.736206,612.907715 
	C1507.444946,612.725708 1501.176758,611.792114 1494.894775,611.235352 
	C1491.995972,610.978516 1491.094604,609.387512 1490.957520,606.580261 
	C1490.380859,594.767212 1490.305542,594.770020 1501.202026,590.351135 
	C1513.546021,585.345276 1525.889893,580.339050 1538.235474,575.336975 
	C1547.954834,571.399170 1552.983032,574.526550 1553.986938,584.863220 
	C1554.789551,593.126282 1555.889526,601.360535 1556.886353,609.604126 
	C1556.983521,610.408020 1557.282715,611.187378 1557.756714,613.011597 
	C1559.283203,611.505432 1560.394043,610.533813 1561.361694,609.436035 
	C1576.533936,592.223083 1593.841919,578.295044 1617.090698,573.780945 
	C1633.239746,570.645386 1648.926636,571.442200 1663.172241,580.807251 
	C1674.836426,588.475281 1680.192017,600.363831 1682.768433,613.303955 
	C1684.768188,623.347656 1685.744629,633.737122 1685.860840,643.987793 
	C1686.234985,676.973083 1685.996704,709.965393 1686.002930,742.954956 
	C1686.004150,749.871582 1686.573975,750.364197 1693.626587,751.014771 
	C1699.746460,751.579468 1706.004883,751.724792 1711.916138,753.200928 
	C1719.847412,755.181458 1714.799805,762.061096 1715.874146,766.633484 
	C1716.708862,770.185669 1714.128906,771.034546 1710.981934,771.024414 
	C1692.488159,770.964905 1673.994019,770.998108 1655.000000,771.000000 
z"/>
<path fill="#0D0C0A" opacity="1.000000" stroke="none" 
	d="
M1437.189209,743.147827 
	C1422.974365,759.319458 1405.673584,769.652710 1384.934692,773.993408 
	C1339.050049,783.597473 1291.150513,760.897278 1275.866943,713.571716 
	C1264.667603,678.893066 1266.763672,644.861450 1286.457153,613.336487 
	C1300.430420,590.968262 1321.283936,577.926025 1347.058716,573.181946 
	C1371.370483,568.707214 1394.537354,572.581177 1415.506592,585.901978 
	C1436.158447,599.021301 1449.717773,617.702332 1455.876221,641.510986 
	C1463.215820,669.886780 1461.554077,697.648010 1449.126099,724.338562 
	C1446.066528,730.909119 1441.359375,736.712463 1437.189209,743.147827 
M1309.052124,658.824280 
	C1308.965454,677.943726 1307.980835,697.106201 1313.905640,715.751953 
	C1320.655884,736.995483 1332.819824,752.509644 1356.322144,755.483215 
	C1377.200439,758.124756 1394.896606,752.319946 1407.029419,733.943237 
	C1415.829468,720.614197 1418.791504,705.602478 1420.209717,689.978577 
	C1422.191650,668.144470 1420.838745,646.729736 1413.131104,626.085388 
	C1400.194458,591.435791 1366.055908,585.440979 1340.657349,597.283203 
	C1327.857056,603.251343 1320.078003,614.233521 1315.946045,627.301758 
	C1312.808228,637.225464 1311.343018,647.678101 1309.052124,658.824280 
z"/>
<path fill="#0D0C0A" opacity="1.000000" stroke="none" 
	d="
M891.011353,727.971802 
	C875.271179,755.759521 851.504517,770.929382 820.460388,775.053955 
	C794.444519,778.510498 770.593750,772.393005 749.833069,756.655090 
	C732.441101,743.470947 721.433716,725.554016 716.530823,704.108887 
	C710.084106,675.910522 711.596436,648.252625 725.009094,622.410645 
	C740.580566,592.409302 765.927063,576.060608 799.755615,572.928040 
	C822.139160,570.855225 842.734009,575.844727 861.507507,588.052124 
	C884.368042,602.917175 896.754944,624.729309 901.829712,650.962769 
	C906.093201,673.002563 904.372009,694.713623 896.516724,715.814758 
	C895.011108,719.859192 892.969971,723.704224 891.011353,727.971802 
M862.868286,646.760559 
	C859.890137,637.795532 857.648193,628.499512 853.793945,619.928467 
	C842.783875,595.444214 815.664124,587.707764 792.719666,594.258972 
	C772.984863,599.893677 762.644348,614.510010 757.372681,632.988953 
	C749.633667,660.117249 749.948425,687.552917 757.020630,714.825562 
	C760.597412,728.618652 767.570984,740.664673 779.857483,748.261719 
	C804.389832,763.430481 844.839172,758.911438 858.274048,719.607483 
	C866.325195,696.053772 866.378967,671.944946 862.868286,646.760559 
z"/>
<path fill="#0D0C0A" opacity="1.000000" stroke="none" 
	d="
M960.994385,746.994751 
	C947.181519,730.777588 941.216370,711.945251 938.863037,691.437805 
	C936.594299,671.667236 938.603821,652.434021 945.404114,633.942444 
	C954.670288,608.745117 971.328796,589.681091 996.513184,579.498047 
	C1025.723267,567.687256 1054.532349,569.127686 1081.841187,585.529907 
	C1093.872192,592.755920 1102.614624,603.151672 1107.037231,616.722595 
	C1109.638550,624.704773 1105.870239,633.137207 1098.318359,636.828003 
	C1086.436279,642.635010 1072.513184,637.108398 1068.071899,624.482971 
	C1065.145020,616.162720 1063.059937,607.543945 1060.060425,599.253296 
	C1059.256104,597.029968 1056.730957,594.316162 1054.573608,593.870239 
	C1036.185547,590.068970 1018.399841,591.031006 1002.593689,602.658142 
	C992.627686,609.989258 985.829773,619.872559 981.898560,631.436035 
	C972.049194,660.407166 971.219666,689.411377 984.896179,717.413635 
	C993.692261,735.423401 1009.100586,745.141418 1028.948608,748.064819 
	C1054.785156,751.870361 1076.091064,743.430908 1093.752808,724.724304 
	C1094.657349,723.766235 1095.432129,722.685608 1096.455933,721.430847 
	C1098.241821,722.954834 1099.556274,724.182373 1100.976929,725.271790 
	C1110.510132,732.582581 1109.268799,732.518921 1102.704102,741.471863 
	C1088.003174,761.520813 1068.481445,773.378845 1043.058960,775.240234 
	C1019.855408,776.938965 997.813538,774.073120 977.955627,761.306824 
	C971.876099,757.398499 966.750916,752.005798 960.994385,746.994751 
z"/>
<path fill="#0D0C0A" opacity="1.000000" stroke="none" 
	d="
M1151.141357,611.997070 
	C1139.969238,611.340759 1140.240479,611.331360 1139.879517,600.896545 
	C1139.711914,596.049072 1141.431152,593.676147 1145.878784,592.150208 
	C1162.736572,586.366211 1179.430298,580.090515 1196.379150,574.596558 
	C1199.773315,573.496277 1204.097412,574.679504 1207.816895,575.556091 
	C1208.816895,575.791748 1209.702393,578.768372 1209.716309,580.494202 
	C1209.752319,584.966431 1209.040894,589.442505 1209.035767,593.917542 
	C1208.979004,643.415100 1208.998657,692.912781 1209.001343,742.410400 
	C1209.001709,749.628662 1208.999512,749.704834 1216.208374,750.739136 
	C1222.131226,751.588867 1228.083618,752.233521 1234.024292,752.957886 
	C1234.849609,753.058533 1235.910645,752.787720 1236.477051,753.208130 
	C1241.755005,757.125000 1238.050171,762.688171 1238.728760,767.449219 
	C1238.866333,768.414917 1236.137207,770.763367 1234.662720,770.823181 
	C1226.343262,771.160767 1218.003296,770.998474 1209.670410,770.999268 
	C1189.171387,771.001282 1168.671021,770.875244 1148.174316,771.090454 
	C1143.333618,771.141296 1141.702759,769.530518 1141.933960,764.757385 
	C1142.560303,751.820923 1139.137207,753.831604 1154.038696,751.988098 
	C1158.820068,751.396606 1163.585938,750.599915 1168.384644,750.257141 
	C1172.088623,749.992615 1173.076538,748.205811 1173.048218,744.761719 
	C1172.927124,730.096802 1172.999512,715.430176 1172.999878,700.764221 
	C1173.000488,675.765442 1173.000610,650.766602 1172.998535,625.767822 
	C1172.998413,624.268005 1173.043579,622.764343 1172.954712,621.269104 
	C1172.503906,613.674133 1171.997559,613.268433 1164.526733,612.965454 
	C1160.214355,612.790588 1155.913452,612.330505 1151.141357,611.997070 
z"/>
<path fill="#0D0C0A" opacity="1.000000" stroke="none" 
	d="
M1393.756104,508.744232 
	C1381.256958,520.220459 1369.016479,531.452148 1356.756470,542.662537 
	C1354.397949,544.819092 1352.156494,545.322937 1349.291138,543.002441 
	C1339.974487,535.457520 1339.215088,538.561584 1346.373047,527.511230 
	C1357.678467,510.058044 1369.203003,492.745697 1380.757568,475.455780 
	C1384.881470,469.284821 1390.816406,465.609406 1398.307739,465.602936 
	C1404.059448,465.597961 1409.230469,467.865814 1411.983154,473.290710 
	C1414.900391,479.040222 1414.787964,485.340881 1410.886963,490.325989 
	C1405.811157,496.812195 1399.683350,502.475098 1393.756104,508.744232 
z"/>
<path fill="#0D0C0A" opacity="1.000000" stroke="none" 
	d="
M1170.776733,487.750824 
	C1182.104248,479.297821 1195.043335,478.583618 1205.384644,485.606842 
	C1215.562744,492.519226 1219.131958,506.392090 1213.739380,518.080933 
	C1208.876099,528.622986 1195.180298,535.275757 1184.086426,532.485291 
	C1168.371826,528.532593 1160.201416,516.658081 1163.371948,500.811615 
	C1164.285278,496.247162 1168.054688,492.254181 1170.776733,487.750824 
z"/>
<path fill="#FFFFFF" opacity="1.000000" stroke="none" 
	d="
M2008.984863,525.165527 
	C1997.161743,524.356262 1985.338623,523.547058 1973.262451,522.720520 
	C1973.262451,516.347595 1973.262451,510.074341 1973.262451,503.398987 
	C2012.162964,503.398987 2051.201416,503.398987 2090.620605,503.398987 
	C2090.620605,509.537872 2090.620605,515.928223 2090.620605,522.632019 
	C2077.265625,523.696167 2063.754883,524.772766 2049.924316,525.874817 
	C2049.924316,528.301819 2049.924072,530.106262 2049.924072,531.910706 
	C2049.924072,577.213074 2049.946045,622.515442 2049.912842,667.817810 
	C2049.900391,685.193970 2052.586914,702.072693 2060.029541,717.853088 
	C2067.634033,733.976257 2080.845215,743.805481 2097.916016,747.804321 
	C2113.145020,751.371521 2128.514648,750.849731 2143.584961,745.984741 
	C2161.051270,740.346252 2172.246094,728.253723 2178.867188,711.606995 
	C2184.130615,698.373962 2186.620605,684.594177 2186.032471,670.296204 
	C2185.895996,666.983337 2186.167725,663.653687 2186.879395,660.104309 
	C2187.598877,659.579285 2187.690430,659.281799 2187.781982,658.984253 
	C2187.821533,615.304321 2187.861084,571.624390 2187.886719,527.221802 
	C2187.576904,526.387939 2187.280518,526.276733 2186.984375,526.165466 
	C2172.889893,524.922119 2158.795654,523.678711 2144.336426,522.403137 
	C2144.336426,516.376831 2144.336426,509.982941 2144.336426,503.292053 
	C2178.058350,503.292053 2211.779785,503.292053 2245.750977,503.292053 
	C2245.750977,509.689178 2245.750977,515.962097 2245.750977,522.666748 
	C2234.103760,523.552429 2222.339600,524.447021 2209.924316,525.391113 
	C2209.924316,527.212463 2209.924072,529.142334 2209.924072,531.072266 
	C2209.924072,578.233398 2210.482666,625.403870 2209.689209,672.551636 
	C2209.291016,696.210754 2204.485352,719.253845 2190.883789,739.544006 
	C2178.552734,757.938904 2161.187256,769.170044 2139.918701,773.767456 
	C2111.096436,779.997803 2082.796631,778.381714 2056.029785,764.581360 
	C2038.319336,755.450317 2026.443237,741.005310 2018.998657,722.807678 
	C2014.215332,711.115662 2011.268799,698.945374 2010.890137,686.223206 
	C2010.698608,679.787415 2009.978882,673.359802 2009.966675,666.927551 
	C2009.877441,620.266602 2009.907837,573.605408 2009.886719,526.221802 
	C2009.577026,525.388000 2009.280884,525.276733 2008.984863,525.165527 
z"/>
<path fill="#FFFFFF" opacity="1.000000" stroke="none" 
	d="
M2339.942871,750.999146 
	C2372.701904,750.665710 2404.969238,750.309021 2437.237549,750.038513 
	C2440.131104,750.014221 2441.443848,749.451904 2442.114014,746.092224 
	C2445.292236,730.156006 2448.949951,714.315369 2452.487793,698.207214 
	C2459.949463,698.207214 2467.582764,698.207214 2476.159424,698.207214 
	C2475.286865,722.225525 2474.412598,746.287476 2473.526611,770.678833 
	C2404.532959,770.678833 2335.482422,770.678833 2266.079590,770.678833 
	C2265.777588,762.395630 2265.619873,754.875671 2270.933350,747.268677 
	C2291.375977,718.002319 2311.009033,688.171143 2331.014404,658.598389 
	C2346.916260,635.091187 2362.937012,611.664429 2378.875488,588.181946 
	C2393.420654,566.751953 2407.926514,545.295349 2422.642578,523.565308 
	C2384.092041,523.565308 2345.966309,523.565308 2307.160889,523.565308 
	C2303.289307,541.174255 2299.502441,558.397583 2295.678223,575.791138 
	C2287.591553,575.791138 2279.632080,575.791138 2270.923584,575.791138 
	C2270.923584,572.558594 2270.860352,569.305908 2270.934570,566.056396 
	C2271.268311,551.459106 2271.415283,536.851868 2272.106445,522.270935 
	C2272.400879,516.067688 2273.864258,509.919983 2274.860352,503.325012 
	C2338.917969,503.325012 2403.640381,503.325012 2468.591553,503.325012 
	C2469.316650,511.275024 2469.190674,518.403748 2464.075439,525.648315 
	C2447.248535,549.480591 2431.232178,573.885498 2414.903320,598.069580 
	C2400.216553,619.821106 2385.547119,641.584106 2370.836426,663.319275 
	C2356.212402,684.925842 2341.561768,706.514526 2326.889893,728.088684 
	C2321.884766,735.448669 2316.779785,742.740601 2311.073975,750.999146 
	C2321.290527,750.999146 2330.371094,750.999146 2339.942871,750.999146 
z"/>
<path fill="#FFFFFF" opacity="1.000000" stroke="none" 
	d="
M1790.782349,747.984253 
	C1790.822266,747.653503 1790.895386,747.322937 1790.897339,746.992004 
	C1791.242554,689.072510 1791.671509,631.153320 1791.864014,573.233337 
	C1791.915283,557.804932 1791.241577,542.374146 1790.887085,526.221802 
	C1790.577271,525.387817 1790.281006,525.276550 1789.984863,525.165222 
	C1777.160889,524.332275 1764.337036,523.499268 1751.259033,522.649780 
	C1751.259033,516.333679 1751.259033,510.059479 1751.259033,503.391357 
	C1790.851074,503.391357 1830.565918,503.391357 1870.640869,503.391357 
	C1870.640869,509.582275 1870.640869,515.973999 1870.640869,522.673767 
	C1857.964966,523.559875 1845.201416,524.452087 1832.457764,525.342896 
	C1830.173584,539.872070 1829.907227,706.576172 1832.109253,748.626831 
	C1863.808350,748.626831 1895.530640,748.626831 1927.579468,748.626831 
	C1931.484375,730.364319 1935.421265,711.951660 1939.420044,693.249878 
	C1946.930420,693.249878 1954.687988,693.249878 1963.284912,693.249878 
	C1962.042969,719.076233 1960.808350,744.748474 1959.559814,770.710938 
	C1890.280640,770.710938 1821.035889,770.710938 1751.395508,770.710938 
	C1751.395508,764.494446 1751.395508,758.100647 1751.395508,751.315674 
	C1763.821533,750.544128 1776.448486,749.760071 1789.791626,748.926514 
	C1790.599243,748.579468 1790.690796,748.281860 1790.782349,747.984253 
z"/>
<path fill="#FF8E22" opacity="1.000000" stroke="none" 
	d="
M2187.624512,659.101074 
	C2187.690430,659.281799 2187.598877,659.579285 2187.246094,659.855652 
	C2187.115967,659.605896 2187.276611,659.400391 2187.624512,659.101074 
z"/>
<path fill="#FF8E22" opacity="1.000000" stroke="none" 
	d="
M2187.093994,526.328369 
	C2187.280518,526.276733 2187.576904,526.387939 2187.827637,526.757507 
	C2187.554443,526.879089 2187.361816,526.704224 2187.093994,526.328369 
z"/>
<path fill="#FF8E22" opacity="1.000000" stroke="none" 
	d="
M2009.094360,525.328369 
	C2009.280884,525.276733 2009.577026,525.388000 2009.827515,525.757507 
	C2009.554565,525.879150 2009.361938,525.704285 2009.094360,525.328369 
z"/>
<path fill="#FF8E22" opacity="1.000000" stroke="none" 
	d="
M1790.094360,525.328125 
	C1790.281006,525.276550 1790.577271,525.387817 1790.827881,525.757446 
	C1790.554810,525.879272 1790.361938,525.704346 1790.094360,525.328125 
z"/>
<path fill="#FF8E22" opacity="1.000000" stroke="none" 
	d="
M1790.624756,748.101135 
	C1790.690796,748.281860 1790.599243,748.579468 1790.246338,748.855957 
	C1790.116089,748.606201 1790.276855,748.400635 1790.624756,748.101135 
z"/>
<path fill="#000000" opacity="1.000000" stroke="none" 
	d="
M1309.092773,658.359802 
	C1311.343018,647.678101 1312.808228,637.225464 1315.946045,627.301758 
	C1320.078003,614.233521 1327.857056,603.251343 1340.657349,597.283203 
	C1366.055908,585.440979 1400.194458,591.435791 1413.131104,626.085388 
	C1420.838745,646.729736 1422.191650,668.144470 1420.209717,689.978577 
	C1418.791504,705.602478 1415.829468,720.614197 1407.029419,733.943237 
	C1394.896606,752.319946 1377.200439,758.124756 1356.322144,755.483215 
	C1332.819824,752.509644 1320.655884,736.995483 1313.905640,715.751953 
	C1307.980835,697.106201 1308.965454,677.943726 1309.092773,658.359802 
z"/>
<path fill="#000000" opacity="1.000000" stroke="none" 
	d="
M862.917480,647.193604 
	C866.378967,671.944946 866.325195,696.053772 858.274048,719.607483 
	C844.839172,758.911438 804.389832,763.430481 779.857483,748.261719 
	C767.570984,740.664673 760.597412,728.618652 757.020630,714.825562 
	C749.948425,687.552917 749.633667,660.117249 757.372681,632.988953 
	C762.644348,614.510010 772.984863,599.893677 792.719666,594.258972 
	C815.664124,587.707764 842.783875,595.444214 853.793945,619.928467 
	C857.648193,628.499512 859.890137,637.795532 862.917480,647.193604 
z"/>
</svg>